<svg width="102" height="102" viewBox="0 0 102 102" fill="none" xmlns="http://www.w3.org/2000/svg">
<path d="M15.7754 6.88235L19.408 22.3904L27.0572 17.0428L31.1368 15.4385L33.8358 14.369L32.4152 7.8554L27.0572 1L15.7754 6.88235Z" fill="white"/>
<path d="M27.0572 19.1818L14.8184 28.5522L5.47761 40.5457L1 57.6845V75.3315L5.47761 60.4476L12.4428 47.5943L22.7611 39.5027L21.398 36.8288L15.7754 40.5457L21.398 32.3606L33.8358 26.172L35.3352 27.1855L39.806 24.5135L43.8856 21.8556L44.4165 24.5135L53.5746 22.3904L45.8136 26.5175L38.8109 30.4117L40.3159 32.3606L46.2736 28.5522L56.6343 23.4599L64.893 22.3904H76.5224L85.0796 24.2678L101 29.0283L88.0647 19.9833L76.5224 15.9732L64.893 14.2707H57.1443L35.3352 15.9732L27.0572 19.1818Z" fill="white"/>
<path d="M40.3159 101L23.3881 35.2169L33.8358 29.9804L38.8109 35.2169L56.2363 101H48.2761H40.3159Z" fill="white"/>
<path d="M15.7754 6.88235L19.408 22.3904L27.0572 17.0428L31.1368 15.4385L33.8358 14.369L32.4152 7.8554L27.0572 1L15.7754 6.88235Z" stroke="black"/>
<path d="M27.0572 19.1818L14.8184 28.5522L5.47761 40.5457L1 57.6845V75.3315L5.47761 60.4476L12.4428 47.5943L22.7611 39.5027L21.398 36.8288L15.7754 40.5457L21.398 32.3606L33.8358 26.172L35.3352 27.1855L39.806 24.5135L43.8856 21.8556L44.4165 24.5135L53.5746 22.3904L45.8136 26.5175L38.8109 30.4117L40.3159 32.3606L46.2736 28.5522L56.6343 23.4599L64.893 22.3904H76.5224L85.0796 24.2678L101 29.0283L88.0647 19.9833L76.5224 15.9732L64.893 14.2707H57.1443L35.3352 15.9732L27.0572 19.1818Z" stroke="black"/>
<path d="M40.3159 101L23.3881 35.2169L33.8358 29.9804L38.8109 35.2169L56.2363 101H48.2761H40.3159Z" stroke="black"/>
</svg>
